<svg version="1.2" xmlns="http://www.w3.org/2000/svg" viewBox="0 0 700 688" width="700" height="688"><style>.a{stroke:#83271e;stroke-width:.4}.b{fill:#c0c0c0}.c{fill:#c0c0c0;stroke:#53827d;stroke-width:.4}.d{fill:#c0c0c0;stroke:#787d14;stroke-width:.4}.e{fill:#c0c0c0;stroke:#420b26;stroke-width:.4}</style><path class="a" d="m350.4 29.7c172.2 0 312 140.1 312 312.7 0 172.6-139.8 312.7-312 312.7-172.2 0-312-140.1-312-312.7 0-172.6 139.8-312.7 312-312.7z"/><path class="b" d="m199.2 501.3l11.1-41.8 29.6 24 29.5 23.9-40.6 17.8-40.7 17.8z"/><path class="c" d="m466 166.6l59.1 47.9-248.2 285.6-59.2-47.9z"/><path class="d" d="m489.1 141.3c6.1-7 16.6-7.9 23.8-2.1l32.7 26.4c3.5 2.9 5.7 7 6.1 11.5 0.4 4.5-1.1 9-4 12.4l-6.6 7.5c-6 7-16.6 7.9-23.8 2.1l-32.6-26.5c-3.6-2.8-5.8-6.9-6.1-11.4-0.4-4.5 1-9 4-12.4z"/><path class="e" d="m488.4 142.2l59 47.7-17 19.6-59-47.8z"/></svg>