<svg version="1.2" xmlns="http://www.w3.org/2000/svg" viewBox="0 0 501 501" width="501" height="501"><style></style><path  d="m301.3 249.8c0-25.6-18.9-46.8-43.4-50.5v100.9c24.5-3.7 43.4-24.9 43.4-50.4z"/><path  d="m500.1 385.1v-53h-66.4c-4.3 0-7.8-4-7.8-8.3v-22.2c-21.3-8.5-35.3-28.8-35.3-51.9 0-23.1 14-43.3 35.3-51.8v-22.2c0-4.3 3.5-7.7 7.8-7.7h66.4v-53.4c0-18.1-14.8-32.6-33-32.6h-209.2v101.5c33.2 3.8 59 32.1 59 66.3 0 34.2-25.8 62.4-59 66.2v102h209.2c18.2 0 33-14.8 33-32.9z"/><path  d="m425.9 215.3c-12.1 7.1-19.7 20-19.7 34.4 0 14.5 7.6 27.4 19.7 34.5z"/><path  d="m500.1 183.6v132.9h-58.6v-132.9z"/><path  d="m242.2 199.4c-24.3 3.9-43 25-43 50.4 0 25.3 18.7 46.4 43 50.3z"/><path  d="m242.2 315.9c-32.9-4-58.6-32.1-58.6-66.1 0-34.1 25.7-62.2 58.6-66.2v-101.6h-209.3c-18.1 0-32.9 14.5-32.9 32.6v53.4h66.4c4.3 0 7.8 3.4 7.8 7.7v22.2c21.3 8.5 35.3 28.7 35.3 51.8 0 23.1-14 43.4-35.3 51.9v22.2c0 4.3-3.5 8.3-7.8 8.3h-66.4v53c0 18.1 14.8 32.9 32.9 32.9h209.3z"/><path  d="m93.9 249.7c0-14.4-7.6-27.3-19.7-34.4v68.9c12.1-7.1 19.7-20.1 19.7-34.5z"/><path  d="m58.6 183.6v132.9h-58.6v-132.9z"/></svg>