<svg version="1.2" xmlns="http://www.w3.org/2000/svg" viewBox="0 0 22 22" width="22" height="22"><style></style><path fill-rule="evenodd" d="m7.2 20.2c-1.2-0.5-2.3-1.2-3.3-2.1-0.9-1-1.6-2.1-2.1-3.3-0.5-1.2-0.8-2.5-0.8-3.8 0-4 2.4-7.7 6.2-9.2 3.7-1.6 8-0.7 10.9 2.1 2.8 2.9 3.7 7.2 2.1 10.9-1.5 3.8-5.2 6.2-9.2 6.2-1.3 0-2.6-0.3-3.8-0.8zm4.4-1.3q0.2-0.1 0.5-0.3 0.2-0.3 0.3-0.5 0.1-0.3 0.1-0.6c0-0.6-0.4-1.2-0.9-1.4-0.6-0.2-1.2-0.1-1.7 0.3-0.4 0.5-0.5 1.1-0.3 1.7 0.2 0.5 0.8 0.9 1.4 0.9q0.3 0 0.6-0.1zm-4.3-10.2q0.3 0.2 0.7 0.2 0.4 0 0.7-0.2 0.3-0.3 0.3-0.7 0-0.3 0.1-0.6 0-0.2 0.2-0.5 0.1-0.2 0.3-0.4 0.2-0.2 0.5-0.3 0.2-0.1 0.5-0.2 0.3 0 0.5 0 0.3 0 0.5 0.1 0.3 0.1 0.5 0.2 0.4 0.3 0.6 0.7 0.3 0.4 0.3 0.9 0 0.5-0.2 0.9-0.2 0.5-0.6 0.8-0.3 0.3-0.7 0.6-0.3 0.4-0.6 0.8-0.2 0.4-0.4 0.8-0.2 0.5-0.4 1 0 0.4 0.2 0.7 0.2 0.4 0.6 0.5 0.4 0.1 0.7-0.1 0.4-0.3 0.5-0.7 0.1-0.3 0.2-0.6 0.1-0.3 0.3-0.5 0.2-0.3 0.4-0.5 0.2-0.3 0.5-0.5 0.7-0.6 1.1-1.5 0.4-0.8 0.4-1.8-0.1-0.9-0.5-1.8-0.5-0.8-1.3-1.3-0.4-0.3-0.9-0.5-0.5-0.1-1-0.2-0.5 0-1 0.1-0.5 0-1 0.2-0.5 0.3-0.9 0.7-0.5 0.3-0.8 0.8-0.3 0.5-0.5 1.1-0.1 0.5-0.1 1.1 0 0.4 0.3 0.7z"/></svg>